<svg xmlns="http://www.w3.org/2000/svg" width="96" height="96" viewBox="0 0 96 96">
    <g fill="none" fill-rule="nonzero">
        <circle cx="48" cy="48" r="48" fill="#888"/>
        <path fill="#FFF" d="M70.477 67.732l-3.047-3.047h.002l-5.56-5.559c-1.932-1.931-4.93-2.188-7.135-.61a16.204 16.204 0 0 1-5.504 2.536c-.327.083-.657.148-.99.21-.55.103-1.105.176-1.664.224-.322.027-.643.058-.967.067-.51.012-1.022.006-1.536-.029h-.012c-.474-.03-.95-.092-1.425-.16-.1-.018-.201-.03-.301-.047a15.852 15.852 0 0 1-2.268-.566c-.113-.037-.222-.083-.336-.123a16.204 16.204 0 0 1-1.94-.83c-.07-.036-.143-.067-.212-.103a16.452 16.452 0 0 1-1.972-1.233c-.065-.048-.128-.098-.194-.146a16.611 16.611 0 0 1-3.365-3.37 16.502 16.502 0 0 1-1.384-2.187 15.87 15.87 0 0 1-.968-2.262c-.01-.028-.022-.057-.031-.085a15.803 15.803 0 0 1-.609-2.44c-.328-2.007-.301-4 .064-5.905.24-1.255.627-2.473 1.152-3.634.017-.039.038-.075.055-.112a15.972 15.972 0 0 1 .945-1.749c.301-.484.626-.954.98-1.41l.084-.112c.399-.503.827-.99 1.29-1.452.445-.445.914-.854 1.396-1.24.103-.083.213-.16.318-.238.361-.275.734-.532 1.114-.776a16.368 16.368 0 0 1 1.542-.86c.213-.104.42-.211.637-.307a15.81 15.81 0 0 1 1.12-.43c.182-.066.36-.144.547-.202a16.02 16.02 0 0 1 1.678-.426c.205-.04.418-.062.626-.096.39-.062.78-.117 1.175-.152.246-.021.495-.027.745-.038.36-.014.724-.021 1.086-.012a16.61 16.61 0 0 1 1.75.14c.32.043.64.085.954.146.605.112 1.194.261 1.774.442.384.12.758.265 1.129.415a16.085 16.085 0 0 1 2.669 1.36c.178.11.359.214.533.331.358.246.701.507 1.04.778.178.146.349.3.523.453.55.482 1.068 1 1.548 1.551.142.163.286.323.422.492.282.35.555.708.809 1.08.048.072.088.147.134.218a16.217 16.217 0 0 1 1.492 2.849c.253.63.46 1.28.635 1.945.085.324.179.643.242.975.089.444.156.897.208 1.354.01.1.023.2.03.3.043.44.064.888.07 1.34v.362a16.69 16.69 0 0 1-.118 1.807c-.01.08-.017.161-.027.242a16.314 16.314 0 0 1-1.99 5.9l3.334 1.907a20.03 20.03 0 0 0 1.857-4.476l.033.008c.03-.108.046-.219.075-.328.013-.052.02-.102.034-.154.198-.76.346-1.528.453-2.304.018-.133.029-.265.044-.398.083-.704.131-1.41.139-2.123 0-.08.015-.161.015-.242 0-.1-.013-.198-.015-.298a21.649 21.649 0 0 0-.077-1.534c-.016-.176-.037-.351-.058-.528-.036-.336-.054-.67-.107-1.006-1.32-8.165-7.8-14.826-15.873-16.446l-.058-.012c-.205-.04-.405-.092-.61-.127-.229-.036-.457-.042-.684-.07-.424-.058-.85-.104-1.282-.137-.311-.021-.62-.038-.93-.046-.18-.006-.357-.027-.537-.027-.294 0-.578.03-.868.044-.292.012-.585.02-.877.044a20.35 20.35 0 0 0-1.465.19c-.256.04-.513.068-.764.118-.7.14-1.387.312-2.059.522-.26.082-.514.192-.773.284-.429.154-.857.309-1.271.49-.29.126-.57.272-.855.412-.388.192-.77.39-1.142.607-.08.046-.167.083-.248.13-.048.03-.1.05-.148.08-.12.072-.232.168-.353.245-.434.277-.856.572-1.267.881-.165.123-.332.24-.496.369a20.333 20.333 0 0 0-3.246 3.254c-.08.1-.15.202-.227.304a19.86 19.86 0 0 0-2.2 3.6c-.064.134-.133.265-.194.4a20.085 20.085 0 0 0-1.78 8.257c0 1.653.22 3.25.597 4.789.03.134.067.264.102.397.11.41.223.818.357 1.217.035.104.077.206.113.307a20.04 20.04 0 0 0 1.934 4.006 19.978 19.978 0 0 0 .858 1.257 20.343 20.343 0 0 0 4.241 4.255c.056.042.11.082.165.125.356.257.717.505 1.089.739.127.08.255.155.382.232.344.208.687.413 1.043.6.2.103.405.195.608.293.486.234.981.451 1.488.645.325.127.65.252.981.361.27.088.542.161.814.238a19.195 19.195 0 0 0 1.869.432c.067.012.134.03.201.042.098.016.194.018.29.033.54.083 1.085.15 1.638.188.096.008.192.01.29.016.39.023.777.06 1.173.06.144 0 .284-.028.43-.032.74-.015 1.475-.06 2.202-.153.294-.039.582-.106.874-.156a20.593 20.593 0 0 0 1.6-.342c.168-.044.341-.059.508-.107l-.01-.033a20.12 20.12 0 0 0 6.177-2.962 1.696 1.696 0 0 1 2.183.203l8.606 8.606c.374.374.865.562 1.357.562s.983-.188 1.357-.562c.751-.751.751-1.964 0-2.715"/>
    </g>
</svg>
