<svg xmlns="http://www.w3.org/2000/svg" width="96" height="96" viewBox="0 0 96 96">
    <g fill="none" fill-rule="nonzero">
        <circle cx="48" cy="48" r="48" fill="#888"/>
        <path fill="#FFF" d="M66.052 67.978c0 .734-.598 1.332-1.332 1.332h-5.27a1.334 1.334 0 0 1-1.332-1.332v-.64c0-.912.742-1.654 1.654-1.654h4.626c.912 0 1.654.742 1.654 1.654v.64zm-4.93-25.168v-.016h5.496c.734 0 1.332.598 1.332 1.332v.64c0 .912-.742 1.654-1.654 1.654h-6.57a1.656 1.656 0 0 1-1.654-1.654v-.64c0-.706.558-1.274 1.256-1.316h1.794zm-1.556 11.236c-.824 0-1.494-.67-1.494-1.494v-.64c0-.822.67-1.492 1.494-1.492h8.454c.824 0 1.492.67 1.492 1.492v.64c0 .824-.668 1.494-1.492 1.494h-8.454zm9.946 5.492v.642c0 .822-.668 1.492-1.492 1.492h-8.454c-.824 0-1.494-.67-1.494-1.492v-.642c0-.822.67-1.492 1.494-1.492h8.454c.824 0 1.492.67 1.492 1.492zm4-7.626c0-1.83-.906-3.44-2.284-4.438.446-.808.722-1.722.722-2.708v-.64a5.338 5.338 0 0 0-5.332-5.332h-7.214c-.052 0-.102.014-.154.016H43.894v-8.548c0-4.556-3.706-8.262-8.262-8.262a3.879 3.879 0 0 0-3.876 3.874v4.438a8.489 8.489 0 0 1-3.07 6.54A18.082 18.082 0 0 0 22 50.89v8.81c0 3.636 1.416 7.054 3.986 9.624a13.52 13.52 0 0 0 9.622 3.986h12.41a2 2 0 1 0 0-4h-12.41c-2.564 0-4.978-1-6.794-2.814A9.549 9.549 0 0 1 26 59.7v-8.804a14.108 14.108 0 0 1 5.226-10.956c.008-.004.01-.012.016-.018l.002.004a12.468 12.468 0 0 0 4.508-9.572h.004l-.002-.028.002-.014h-.002L35.632 26a4.267 4.267 0 0 1 4.262 4.262v20.526h4V42.81h10.362c-.108.424-.184.86-.184 1.316v.64c0 1.374.514 2.62 1.332 3.6-.818.96-1.332 2.188-1.332 3.546v.64c0 1.334.496 2.542 1.29 3.494-.794.952-1.29 2.16-1.29 3.492v.642c0 1.372.524 2.614 1.36 3.578-.808.978-1.314 2.214-1.314 3.58v.64a5.338 5.338 0 0 0 5.332 5.332h5.27a5.338 5.338 0 0 0 5.332-5.332v-.64c0-.69-.142-1.342-.368-1.952 2.212-.71 3.828-2.762 3.828-5.206v-.642c0-1.332-.496-2.54-1.29-3.492.794-.952 1.29-2.16 1.29-3.494v-.64z"/>
    </g>
</svg>
