<svg xmlns="http://www.w3.org/2000/svg" width="96" height="96" viewBox="0 0 96 96">
    <g fill="none" fill-rule="nonzero">
        <circle cx="48" cy="48" r="48" fill="#888"/>
        <path fill="#FFF" d="M63.756 45.978c-.805.805-2.116.8-2.92 0a2.027 2.027 0 0 1-.602-1.446c0-.543.213-1.057.601-1.443a2.076 2.076 0 0 1 2.92.002 2.03 2.03 0 0 1 0 2.888zM58.034 26.88h-6.286v4.299a1.92 1.92 0 0 1-1.92 1.92h-.515a6.765 6.765 0 0 0-4.81 1.985 6.7 6.7 0 0 0-1.985 4.781l.002 23.119c0 5.364-4.377 9.73-9.759 9.73a9.755 9.755 0 0 1-2.652-.365 1.92 1.92 0 0 1-1.326-2.369 1.93 1.93 0 0 1 2.369-1.327c.518.146 1.06.221 1.609.221 3.264 0 5.92-2.642 5.92-5.89l-.003-23.115a10.52 10.52 0 0 1 3.115-7.505 10.566 10.566 0 0 1 6.115-3.013V26.88H46.74c-10.95 0-19.86 8.872-19.86 19.778v16.308c0 1.035.275 2.053.791 2.944l-3.32 1.927a9.701 9.701 0 0 1-1.311-4.87v-16.31c0-13.022 10.633-23.617 23.7-23.617h11.294c4.825 0 8.751 3.915 8.751 8.726 0 .517-.046 1.04-.136 1.544l-.065.328-1 6.014a5.835 5.835 0 0 1 2.613 4.88 5.844 5.844 0 0 1-1.73 4.167 5.889 5.889 0 0 1-4.17 1.72c-1.51 0-3.02-.574-4.173-1.722a5.84 5.84 0 0 1-1.73-4.165c0-1.572.615-3.05 1.73-4.162.002 0 .002-.002.002-.002 1.037-1.031 2.37-1.572 3.727-1.674l1.023-6.1a4.97 4.97 0 0 0 .07-.828c0-2.695-2.203-4.886-4.912-4.886zm6.98 29.82c0 4.525-3.694 8.208-8.232 8.208a1.92 1.92 0 1 1 0-3.84c2.423 0 4.392-1.959 4.392-4.368a1.92 1.92 0 1 1 3.84 0zm5.896 1.16c1.06 0 1.92.858 1.92 1.92 0 7.121-5.811 12.916-12.958 12.916a1.92 1.92 0 0 1 0-3.84c5.029 0 9.118-4.072 9.118-9.076 0-1.062.86-1.92 1.92-1.92z"/>
    </g>
</svg>
