<svg xmlns="http://www.w3.org/2000/svg" width="96" height="96" viewBox="0 0 96 96">
    <g fill="none" fill-rule="nonzero">
        <circle cx="48" cy="48" r="48" fill="#000"/>
        <path fill="#FFF" d="M43.45 27.58a1.874 1.874 0 0 1-1.218-3.3 5.184 5.184 0 0 1 3.36-1.24h5.548c1.23 0 2.424.44 3.36 1.239a1.876 1.876 0 0 1-2.434 2.852 1.413 1.413 0 0 0-.926-.343H45.593c-.435 0-.744.188-.926.343a1.88 1.88 0 0 1-1.216.448zm7.148 16.29a1.875 1.875 0 0 1 .774 2.536l-1.813 3.404h.998a1.874 1.874 0 0 1 1.653 2.755l-3.267 6.14a1.874 1.874 0 0 1-3.31-1.76l1.803-3.387h-.997a1.874 1.874 0 0 1-1.655-2.755l3.278-6.158a1.872 1.872 0 0 1 2.536-.774zm9.581-7.339l.045 31.25a5.181 5.181 0 0 1-5.174 5.179H41.702c-1.429 0-2.804-.6-3.779-1.64a1.875 1.875 0 0 1 2.738-2.56c.272.292.641.452 1.04.452H55.05c.787 0 1.426-.64 1.426-1.427l-.045-31.252c0-.789-.64-1.43-1.426-1.43H41.657a1.43 1.43 0 0 0-1.429 1.428l.047 19.042c0 .026-.013.047-.015.071l.015 8.668-3.748.008-.047-27.785a5.184 5.184 0 0 1 5.177-5.18h13.348a5.182 5.182 0 0 1 5.174 5.176z"/>
    </g>
</svg>
