<svg xmlns="http://www.w3.org/2000/svg" width="96" height="96" viewBox="0 0 96 96">
    <g fill="none" fill-rule="nonzero">
        <circle cx="48" cy="48" r="48" fill="#C5003E"/>
        <path fill="#FFF" d="M65.33 67.179a1.28 1.28 0 0 1-1.279 1.279h-5.059a1.28 1.28 0 0 1-1.279-1.28v-.614a1.59 1.59 0 0 1 1.588-1.587h4.441a1.59 1.59 0 0 1 1.588 1.587v.615zm-4.733-24.161v-.016h5.276a1.28 1.28 0 0 1 1.279 1.279v.614a1.59 1.59 0 0 1-1.588 1.588h-6.307a1.59 1.59 0 0 1-1.588-1.588v-.614c0-.678.536-1.223 1.206-1.263h1.722zm-1.494 10.786a1.436 1.436 0 0 1-1.434-1.434v-.614c0-.79.643-1.433 1.434-1.433h8.116c.791 0 1.433.643 1.433 1.433v.614c0 .791-.642 1.434-1.433 1.434h-8.116zm9.549 5.272v.617c0 .789-.642 1.432-1.433 1.432h-8.116a1.435 1.435 0 0 1-1.434-1.432v-.617c0-.789.643-1.432 1.434-1.432h8.116c.791 0 1.433.643 1.433 1.432zm3.84-7.32c0-1.757-.87-3.303-2.193-4.261a5.356 5.356 0 0 0 .693-2.6v-.614a5.125 5.125 0 0 0-5.119-5.119h-6.925c-.05 0-.098.014-.148.016H44.058v-8.206c0-4.374-3.558-7.932-7.931-7.932a3.724 3.724 0 0 0-3.721 3.719v4.26a8.15 8.15 0 0 1-2.947 6.279 17.358 17.358 0 0 0-6.419 13.476v8.458c0 3.49 1.36 6.772 3.827 9.239a12.98 12.98 0 0 0 9.237 3.827h11.913a1.92 1.92 0 1 0 0-3.84H36.104a9.172 9.172 0 0 1-6.523-2.702 9.167 9.167 0 0 1-2.701-6.524V50.78a13.543 13.543 0 0 1 5.017-10.518c.008-.003.01-.011.015-.017l.002.004a11.97 11.97 0 0 0 4.328-9.19h.004l-.002-.026.002-.013h-.002l-.117-4.14a4.096 4.096 0 0 1 4.091 4.092v19.704h3.84v-7.658h9.948a5.092 5.092 0 0 0-.177 1.263v.614c0 1.32.494 2.516 1.279 3.456-.785.922-1.279 2.1-1.279 3.405v.614c0 1.28.476 2.44 1.239 3.354-.763.914-1.239 2.074-1.239 3.352v.617c0 1.317.503 2.51 1.306 3.435-.776.939-1.262 2.125-1.262 3.436v.615a5.125 5.125 0 0 0 5.119 5.119h5.06a5.125 5.125 0 0 0 5.118-5.12v-.614c0-.662-.136-1.288-.353-1.873 2.123-.682 3.675-2.652 3.675-4.998v-.617c0-1.278-.477-2.438-1.239-3.352.762-.914 1.239-2.073 1.239-3.354v-.614z"/>
    </g>
</svg>
