<?xml version="1.0" encoding="UTF-8"?>
<svg width="10px" height="20px" viewBox="0 0 10 20" version="1.1" xmlns="http://www.w3.org/2000/svg" xmlns:xlink="http://www.w3.org/1999/xlink">
    <!-- Generator: Sketch 61 (89581) - https://sketch.com -->
    <title>battery_charging_full-24px</title>
    <desc>Created with Sketch.</desc>
    <g id="Icons" stroke="none" stroke-width="1" fill="none" fill-rule="evenodd">
        <g id="Icon-Create" transform="translate(-223.000000, -276.000000)">
            <g id="battery_charging_full-24px" transform="translate(216.000000, 274.000000)">
                <polygon id="Path" points="0 0 24 0 24 24 0 24"></polygon>
                <path d="M15.67,4 L14,4 L14,2 L10,2 L10,4 L8.33,4 C7.6,4 7,4.6 7,5.33 L7,20.66 C7,21.4 7.6,22 8.33,22 L15.66,22 C16.4,22 17,21.4 17,20.67 L17,5.33 C17,4.6 16.4,4 15.67,4 Z M11,20 L11,14.5 L9,14.5 L13,7 L13,12.5 L15,12.5 L11,20 Z" id="Shape" fill="#888888" fill-rule="nonzero"></path>
            </g>
        </g>
    </g>
</svg>