<svg xmlns="http://www.w3.org/2000/svg" width="95" height="94" viewBox="0 0 95 94">
    <g fill="none" fill-rule="evenodd">
        <path fill="#000" fill-rule="nonzero" d="M29.282 42.394c-.074 2.27-1.955 4.072-4.25 4.072s-4.176-1.802-4.25-4.072c.074-2.27 1.955-4.072 4.25-4.072s4.176 1.802 4.25 4.072m22.266 0c-.074 2.27-1.955 4.072-4.25 4.072-2.296 0-4.177-1.802-4.251-4.072.074-2.27 1.955-4.072 4.25-4.072 2.296 0 4.177 1.802 4.25 4.072m20.782 0c-.074 2.27-1.955 4.072-4.25 4.072-2.296 0-4.177-1.802-4.25-4.072.073-2.27 1.954-4.072 4.25-4.072 2.295 0 4.176 1.802 4.25 4.072M29.282 67.363c-.074 2.27-1.955 4.072-4.25 4.072s-4.176-1.802-4.25-4.072c.074-2.27 1.955-4.072 4.25-4.072s4.176 1.802 4.25 4.072m22.266 0c-.074 2.27-1.955 4.072-4.25 4.072-2.296 0-4.177-1.802-4.251-4.072.074-2.27 1.955-4.072 4.25-4.072 2.296 0 4.177 1.802 4.25 4.072"/>
        <path stroke="#000" stroke-linecap="round" stroke-linejoin="round" stroke-width="6" d="M93.654 63.156l-28.341 28.23M41.563 5.875h45.882c1.544 0 3.025.607 4.117 1.688a5.731 5.731 0 0 1 1.706 4.074v42.707M26.718 5.875H83.96M64.781 91.386H5.823a5.855 5.855 0 0 1-4.118-1.689A5.733 5.733 0 0 1 0 85.622V11.634c0-1.528.614-2.993 1.706-4.073a5.855 5.855 0 0 1 4.117-1.686h19.045m40.445 85.497V68.915c.001-3.18 2.608-5.759 5.823-5.759h22.518M25.234 15.94V0m43.047 15.94V0"/>
    </g>
</svg>
