<svg xmlns="http://www.w3.org/2000/svg" width="96" height="96" viewBox="0 0 96 96">
    <path fill="#000" fill-rule="nonzero" d="M79.889 10.286H61.236C59.719 4.37 54.368 0 48 0S36.281 4.37 34.764 10.286H16.111C11.1 10.286 7 14.4 7 19.429v67.428C7 91.886 11.1 96 16.111 96H79.89C84.9 96 89 91.886 89 86.857V19.429c0-5.03-4.1-9.143-9.111-9.143zm-31.889 0c2.505 0 4.555 2.057 4.555 4.571 0 2.515-2.05 4.572-4.555 4.572s-4.555-2.057-4.555-4.572c0-2.514 2.05-4.571 4.555-4.571zm32.458 77.143H15.542V18.857h8.541v15.429h47.834V18.857h8.541V87.43z"/>
</svg>
