<svg xmlns="http://www.w3.org/2000/svg" width="94" height="94" viewBox="0 0 94 94">
    <g fill="none" fill-rule="nonzero">
        <circle cx="46.13" cy="46.13" r="45.484" fill="#C5003E" transform="rotate(-180 46.13 46.13)"/>
        <path fill="#FFF" d="M33.1 63.392a3.011 3.011 0 0 1-1.98.78 3.026 3.026 0 0 1-2.144-5.173l12.87-12.87-12.87-12.865a3.032 3.032 0 0 1 4.288-4.288l12.866 12.87 12.869-12.87a3.026 3.026 0 0 1 4.284 0c1.137 1.137 1.152 2.932.11 4.124L33.1 63.392zM54.675 50.39L63.283 59A3.03 3.03 0 0 1 59 63.283l-8.612-8.611 4.288-4.282z"/>
    </g>
</svg>
