<svg xmlns="http://www.w3.org/2000/svg" width="96" height="96" viewBox="0 0 96 96">
    <g fill="#C5003E" fill-rule="nonzero">
        <path d="M47.543 9.6c10.126 0 19.657 3.954 26.834 11.109 7.154 7.177 11.109 16.708 11.109 26.834 0 10.126-3.955 19.657-11.109 26.834C67.2 81.531 57.67 85.486 47.543 85.486c-10.126 0-19.657-3.955-26.834-11.109C13.554 67.2 9.6 57.67 9.6 47.543c0-10.126 3.954-19.657 11.109-26.834C27.886 13.554 37.417 9.6 47.543 9.6zm0-9.6C21.28 0 0 21.28 0 47.543c0 26.263 21.28 47.543 47.543 47.543 26.263 0 47.543-21.28 47.543-47.543C95.086 21.28 73.806 0 47.543 0z"/>
        <path d="M71.314 64.663l-6.651 6.651-17.12-17.12-17.12 17.12-6.652-6.651 17.12-17.12-17.12-17.12 6.652-6.652 17.12 17.12 17.12-17.12 6.651 6.652-17.12 17.12z"/>
    </g>
</svg>
