<svg xmlns="http://www.w3.org/2000/svg" width="96" height="96" viewBox="0 0 96 96">
    <g fill="none" fill-rule="evenodd" stroke="#000" stroke-linecap="round" stroke-linejoin="round" stroke-width="4">
        <path d="M47.72 79.516c-1.09 1.68 24.73-38.125 24.73-51.783C72.45 14.075 61.376 3 47.72 3 34.061 3 22.988 14.075 22.988 27.733c0 9.742 11.918 30.857 19.135 42.78.075.13-4.2-7.195-4.123-7.07"/>
        <path d="M39.524 66.097c-7.2-12.347-16.535-29.973-16.535-38.364C22.989 14.073 34.062 3 47.719 3 61.38 3 72.452 14.073 72.452 27.733c0 13.658-24.733 51.783-24.733 51.783M3 92.95h89.496"/>
    </g>
</svg>
