<svg xmlns="http://www.w3.org/2000/svg" width="96" height="96" viewBox="0 0 96 96">
    <g fill="none" fill-rule="evenodd" transform="translate(15)">
        <path fill="#888" fill-rule="nonzero" d="M32.513 0C14.586 0 0 14.538 0 32.406c0 9.145 4.53 15.658 9.327 22.549 4.475 6.43 9.1 13.078 10.715 22.73 1.284 7.68 4.132 12.953 8.466 15.669 2.137 1.34 4.581 2.016 7.222 2.016 1.596 0 3.265-.245 4.982-.745 8.452-2.44 15.807-19.443 16.618-21.374a2.492 2.492 0 0 0-1.343-3.26 2.505 2.505 0 0 0-3.273 1.338c-2.704 6.44-8.735 17.162-13.396 18.51-2.191.632-5.39 1.027-8.147-.706-3.072-1.924-5.155-6.051-6.196-12.266-1.797-10.755-6.973-18.192-11.537-24.752-4.525-6.505-8.436-12.123-8.436-19.708 0-15.12 12.34-27.42 27.511-27.42 15.17 0 27.51 12.3 27.51 27.42a2.495 2.495 0 0 0 2.502 2.492 2.496 2.496 0 0 0 2.5-2.493C65.026 14.538 50.44 0 32.513 0z"/>
        <path stroke="#E6E7E9" stroke-linecap="round" stroke-width="2.207" d="M35.403 13.005c-13.169 0-23.843 10.675-23.843 23.842"/>
        <circle cx="49.13" cy="49.13" r="4.335" fill="#C5003E" fill-rule="nonzero"/>
    </g>
</svg>
