<svg xmlns="http://www.w3.org/2000/svg" width="96" height="96" viewBox="0 0 96 96">
    <path fill="#C5003E" fill-rule="nonzero" d="M84.876 50.281a11.118 11.118 0 0 0-10.374 7.06h-8.83l-6.73-17.265a4.266 4.266 0 0 0-4.073-2.93h-.085a4.262 4.262 0 0 0-4.03 3.101l-7.201 28.968L31.657 6.787C31.293 4.626 29.492 3 27.435 3c-2.036 0-3.623 1.326-4.158 3.466L12.496 57.34H0V65.9h15.86a4.263 4.263 0 0 0 4.159-3.252l6.58-34.359 11.595 60.353c.322 1.883 1.908 3.23 3.987 3.359h.257c1.993 0 3.622-1.134 4.115-2.888L55.17 54.26l3.323 8.707a4.266 4.266 0 0 0 4.072 2.931h12.088c1.78 4.065 5.809 6.632 10.203 6.632 2.979 0 5.765-1.198 7.887-3.38 2.1-2.16 3.258-4.985 3.258-7.959.021-6.118-4.865-10.91-11.124-10.91z"/>
</svg>
