<svg xmlns="http://www.w3.org/2000/svg" width="96" height="96" viewBox="0 0 96 96">
    <path fill="#888" fill-rule="nonzero" d="M94.827 89.167l-6.348-6.352h.004L76.9 71.227c-4.024-4.026-10.272-4.563-14.864-1.272-3.496 2.505-7.38 4.258-11.468 5.287-.68.172-1.368.308-2.06.436a34.86 34.86 0 0 1-3.467.469c-.672.056-1.34.12-2.016.14-1.06.024-2.128.012-3.2-.06H39.8a37.402 37.402 0 0 1-2.968-.336c-.208-.036-.42-.06-.628-.096a33.007 33.007 0 0 1-4.724-1.181c-.236-.076-.464-.172-.7-.256a33.745 33.745 0 0 1-4.044-1.73c-.144-.076-.296-.14-.44-.216a34.272 34.272 0 0 1-4.108-2.57c-.136-.1-.268-.204-.404-.304a34.618 34.618 0 0 1-7.012-7.024c-.068-.088-.136-.176-.2-.269a34.405 34.405 0 0 1-2.684-4.29.057.057 0 0 1-.008-.024 33.097 33.097 0 0 1-2.008-4.692c-.02-.06-.044-.12-.064-.18a32.962 32.962 0 0 1-1.268-5.087c-.684-4.183-.628-8.338.132-12.308a33.885 33.885 0 0 1 2.4-7.577c.036-.08.08-.156.116-.232a33.304 33.304 0 0 1 1.968-3.647 34.705 34.705 0 0 1 2.04-2.938c.06-.076.116-.156.176-.236a35.37 35.37 0 0 1 2.688-3.026 35.267 35.267 0 0 1 2.908-2.586c.216-.172.444-.332.664-.496a35.363 35.363 0 0 1 2.32-1.617 34.092 34.092 0 0 1 3.212-1.793c.444-.216.876-.44 1.328-.64.764-.337 1.548-.621 2.332-.897.38-.136.752-.3 1.14-.42a33.358 33.358 0 0 1 3.496-.89c.428-.083.872-.127 1.304-.2a35.57 35.57 0 0 1 2.448-.316c.512-.044 1.032-.056 1.552-.08a35.554 35.554 0 0 1 2.264-.024c.58.016 1.152.044 1.72.088.64.044 1.284.12 1.924.205.668.088 1.335.176 1.987.304 1.26.232 2.488.544 3.696.92.8.253 1.58.553 2.352.865a33.502 33.502 0 0 1 5.56 2.834c.372.232.748.448 1.112.692.744.513 1.46 1.057 2.164 1.621.372.305.728.625 1.092.945a34.16 34.16 0 0 1 3.224 3.234c.296.34.596.673.88 1.025a34.357 34.357 0 0 1 1.684 2.253c.1.148.184.305.28.453a33.815 33.815 0 0 1 2.644 4.85c.16.361.316.721.464 1.09.528 1.312.96 2.67 1.324 4.054.176.677.372 1.341.504 2.034.184.924.324 1.869.432 2.822.02.208.048.416.064.624.088.92.132 1.853.144 2.794.004.252 0 .504 0 .756a34.817 34.817 0 0 1-.244 3.767c-.02.168-.036.336-.056.504a34.025 34.025 0 0 1-4.148 12.3l6.948 3.975c1.68-2.942 2.948-6.088 3.868-9.33l.068.016c.064-.224.096-.456.156-.685.028-.108.044-.212.072-.32.412-1.585.72-3.186.944-4.803.036-.276.06-.552.092-.829.172-1.469.272-2.942.288-4.427 0-.168.032-.336.032-.504 0-.208-.028-.412-.032-.62a45.162 45.162 0 0 0-.16-3.198c-.032-.369-.076-.733-.12-1.101-.076-.7-.112-1.397-.224-2.098C81.015 18.136 67.515 4.251 50.695.873l-.12-.024c-.428-.084-.844-.193-1.272-.265-.476-.076-.952-.088-1.423-.148a45.05 45.05 0 0 0-2.672-.284 45.079 45.079 0 0 0-1.936-.096C42.896.044 42.528 0 42.152 0c-.612 0-1.204.064-1.808.092-.608.024-1.22.04-1.828.092a42.37 42.37 0 0 0-3.052.396c-.532.084-1.068.14-1.592.245a42.545 42.545 0 0 0-4.288 1.088c-.544.172-1.072.4-1.612.593-.892.32-1.784.644-2.648 1.02-.604.265-1.188.569-1.78.86-.808.401-1.604.813-2.38 1.266-.168.096-.348.172-.516.272-.1.06-.208.104-.308.164-.252.152-.484.352-.736.512a41.427 41.427 0 0 0-2.64 1.838c-.344.256-.692.5-1.032.768a42.374 42.374 0 0 0-6.764 6.785c-.164.208-.312.42-.472.632a41.403 41.403 0 0 0-4.584 7.505c-.132.28-.276.552-.404.833A41.896 41.896 0 0 0 0 42.176c0 3.446.46 6.777 1.244 9.983.064.28.14.552.212.828.228.857.464 1.705.744 2.538.072.216.16.428.236.64a41.79 41.79 0 0 0 3.832 8.026c.064.108.128.216.196.324a41.65 41.65 0 0 0 1.712 2.522l.076.1a42.394 42.394 0 0 0 8.836 8.87l.344.26c.74.536 1.492 1.053 2.268 1.54.264.169.532.325.796.485.716.432 1.432.86 2.172 1.249.416.216.844.408 1.268.612 1.012.489 2.044.941 3.1 1.345.676.265 1.352.525 2.044.753.56.184 1.128.336 1.696.496a39.968 39.968 0 0 0 3.892.9c.14.025.28.065.42.089.204.032.404.036.604.068 1.124.172 2.26.312 3.412.392.2.016.4.02.604.032.812.048 1.62.124 2.444.124.3 0 .592-.056.896-.064a42.663 42.663 0 0 0 4.588-.32c.611-.08 1.211-.22 1.82-.324a42.875 42.875 0 0 0 3.331-.713c.352-.092.712-.124 1.06-.224l-.02-.068c4.564-1.309 8.916-3.35 12.868-6.176 1.392-.989 3.304-.817 4.548.424l17.928 17.94A3.988 3.988 0 0 0 92 96a3.988 3.988 0 0 0 2.828-1.173 4 4 0 0 0 0-5.66"/>
</svg>
